<svg width="130" height="123" viewBox="0 0 130 123" fill="none" xmlns="http://www.w3.org/2000/svg">
<path d="M129.5 61.1636C129.5 94.639 100.651 121.827 65 121.827C29.3485 121.827 0.5 94.639 0.5 61.1636C0.5 27.6882 29.3485 0.5 65 0.5C100.651 0.5 129.5 27.6882 129.5 61.1636Z" fill="#D9D9D9" stroke="#D9D9D9"/>
<path d="M29.31 78.29L35.2759 41.9263H40.9577L34.9918 78.29H29.31ZM13.028 69.2701L13.9691 63.5883H42.3782L41.4371 69.2701H13.028ZM16.5259 78.29L22.4918 41.9263H28.1736L22.2077 78.29H16.5259ZM15.1055 56.628L16.0643 50.9462H44.4734L43.5145 56.628H15.1055Z" fill="#1E1E1E"/>
<path d="M48.1443 78.29V41.9263H62.4909C65.2371 41.9263 67.5809 42.4176 69.5222 43.4001C71.4753 44.3707 72.9609 45.7497 73.9789 47.5371C75.0087 49.3127 75.5236 51.402 75.5236 53.8049C75.5236 56.2197 75.0028 58.2971 73.9611 60.0371C72.9194 61.7654 71.4102 63.0911 69.4334 64.0144C67.4684 64.9377 65.0892 65.3994 62.2956 65.3994H52.6898V59.2204H61.0527C62.5205 59.2204 63.7397 59.0191 64.7104 58.6167C65.681 58.2142 66.4031 57.6105 66.8766 56.8056C67.3619 56.0007 67.6046 55.0004 67.6046 53.8049C67.6046 52.5975 67.3619 51.5795 66.8766 50.7509C66.4031 49.9223 65.6751 49.2949 64.6926 48.8688C63.722 48.4308 62.4968 48.2119 61.0172 48.2119H55.8325V78.29H48.1443ZM67.7821 61.7417L76.8198 78.29H68.3325L59.4902 61.7417H67.7821ZM111.372 41.9263V78.29H104.732L88.9114 55.4029H88.645V78.29H80.9568V41.9263H87.704L103.4 64.7957H103.72V41.9263H111.372Z" fill="#D25700"/>
</svg>
